<svg width="17" height="16" viewBox="0 0 17 16" fill="none" xmlns="http://www.w3.org/2000/svg">
<path d="M17.1968 14.9682L9.14711 3.0323L10.2085 1.47782C10.3456 1.28211 10.2981 1.01232 10.1024 0.875214C9.9067 0.73811 9.63691 0.785622 9.49981 0.981341L8.63355 2.26532L7.76729 0.981341C7.63019 0.785622 7.3604 0.73811 7.16468 0.875214C6.96897 1.01232 6.92145 1.28211 7.05856 1.47782L8.11655 3.04941L0.0668221 14.9682C-0.0599562 15.1677 -0.00100446 15.4322 0.198493 15.559C0.389994 15.6806 0.643145 15.6318 0.775593 15.4475L1.77197 13.9684V15.2078C1.77197 15.4442 1.9636 15.6358 2.19995 15.6358H15.0603C15.2966 15.6358 15.4883 15.4442 15.4883 15.2078V13.9684L16.4846 15.4475C16.617 15.6442 16.8837 15.6963 17.0804 15.5639C17.2771 15.4316 17.3292 15.1649 17.1968 14.9682ZM6.54149 14.7799L8.63352 11.1539L10.7221 14.7799H6.54149ZM14.6391 14.7799H11.7083L9.00332 10.0856C8.88431 9.8814 8.62228 9.81232 8.41806 9.93134C8.35415 9.96856 8.301 10.0217 8.26378 10.0856L5.55544 14.7799H2.62793V12.7015L8.63352 3.79928L14.6391 12.7015L14.6391 14.7799Z" fill="#1E263B"/>
</svg>
