<svg width="18" height="16" viewBox="0 0 18 16" fill="none" xmlns="http://www.w3.org/2000/svg">
<path d="M10.5547 1.96517C10.2781 1.69271 9.84352 1.67882 9.55078 1.92122L9.49414 1.97298L4.07715 7.47298C4.07407 7.4761 4.07137 7.47958 4.06836 7.48274C4.06024 7.49127 4.05264 7.50021 4.04492 7.50911C4.02063 7.53715 3.99894 7.56649 3.97949 7.597C3.96209 7.62425 3.94839 7.65344 3.93457 7.68294C3.92852 7.6959 3.92031 7.7078 3.91504 7.72102C3.88059 7.80709 3.86133 7.90099 3.86133 7.99934C3.86135 8.09712 3.88095 8.19007 3.91504 8.27571C3.91714 8.281 3.91965 8.28609 3.92188 8.29134C3.93813 8.32961 3.95737 8.36601 3.97949 8.40071C4.00002 8.43296 4.02289 8.46401 4.04883 8.49349C4.05371 8.49903 4.05843 8.50469 4.06348 8.51009C4.06814 8.51508 4.07233 8.52082 4.07715 8.52571L9.49414 14.0257C9.7848 14.3205 10.2597 14.324 10.5547 14.0335C10.8496 13.7429 10.853 13.2681 10.5625 12.973L6.40234 8.74934H17.251C17.665 8.7492 18.0009 8.41338 18.001 7.99934C18.001 7.58522 17.6651 7.24948 17.251 7.24934H6.40234L10.5625 3.02571L10.6133 2.96809C10.8513 2.67179 10.8311 2.2377 10.5547 1.96517Z" fill="#6C7288"/>
<path d="M1 1.58325V14.4166" stroke="#6C7288" stroke-width="1.5" stroke-linecap="round" stroke-linejoin="round"/>
</svg>
