<svg width="19" height="18" viewBox="0 0 19 18" fill="none" xmlns="http://www.w3.org/2000/svg">
<path d="M5.25 17V9.31839C5.25 8.46399 5.25 8.03679 5.45825 7.67839C5.66565 7.31999 6.0473 7.08879 6.81145 6.62639L8.58115 5.55599C9.0274 5.28639 9.2501 5.15119 9.5 5.15119C9.7499 5.15119 9.9726 5.28639 10.4197 5.55599L12.1886 6.62639C12.9527 7.08879 13.3343 7.31999 13.5417 7.67839C13.75 8.03679 13.75 8.46399 13.75 9.31839V17M9.5 9.8H9.50765M17.15 17V12.3296C17.15 10.4968 16.079 10.348 13.75 9.8M1.85 17V12.3296C1.85 10.4968 2.921 10.348 5.25 9.8M1 17H18M9.5 17V13.8M9.5 4.99999V3.38559M9.5 3.38559V1.77599C9.5 1.39679 9.5 1.20719 9.6241 1.08959C10.0151 0.719188 11.625 1.59439 12.237 1.94959C12.7538 2.24879 12.9 2.84719 12.9 3.38559H9.5Z" stroke="#1E263B" stroke-linecap="round" stroke-linejoin="round"/>
</svg>
