<svg width="29" height="20" viewBox="0 0 29 20" fill="none" xmlns="http://www.w3.org/2000/svg">
<path d="M12.7548 20C9.15411 20 5.4873 18.34 5.4873 16.7115V9.9944L6.61216 9.98869L12.6831 13.2001C12.7272 13.2229 12.7796 13.2229 12.8237 13.2001L19.0352 9.91441L20.0167 9.90869V16.7115C20.0167 18.34 16.3526 20 12.7548 20ZM6.5901 11.263V16.7143C6.64249 17.1715 8.99421 18.86 12.7548 18.86C16.5153 18.86 18.8615 17.1715 18.9139 16.7115V11.2658L13.3227 14.2229C12.9643 14.4115 12.537 14.4115 12.1813 14.2229L6.5901 11.2658V11.263Z" fill="#6C7288"/>
<path d="M13.083 14.3491L1.0818 8.34633C0.648949 8.11776 0.384277 7.67205 0.384277 7.18063C0.384277 6.68921 0.646192 6.2435 1.07077 6.02064L12.1815 0.14357C12.5399 -0.0478566 12.9672 -0.0478566 13.3256 0.14357L24.4391 6.02064C24.8609 6.2435 25.1228 6.68921 25.1228 7.18063C25.1228 7.67205 24.8609 8.11776 24.4391 8.34062L13.083 14.3491ZM12.7522 1.14356C12.7274 1.14356 12.7053 1.14927 12.6833 1.1607L1.56979 7.04063C1.50086 7.07777 1.48708 7.13777 1.48708 7.18349C1.48708 7.2292 1.50086 7.2892 1.56979 7.32634L13.0665 13.0748L23.9346 7.32634C24.0035 7.2892 24.0173 7.2292 24.0173 7.18349C24.0173 7.13777 24.0035 7.07777 23.9346 7.04063L12.8239 1.1607C12.8018 1.14927 12.777 1.14356 12.7549 1.14356H12.7522Z" fill="#6C7288"/>
<path d="M24.3532 17.9461C24.2263 17.9461 24.1133 17.849 24.0775 17.7061L23.7797 16.5062C23.5205 15.4462 22.801 14.6176 21.8801 14.3176L20.838 13.9748C20.6863 13.9233 20.5981 13.7433 20.6422 13.5662C20.6698 13.4576 20.7442 13.3719 20.838 13.3405L21.8801 12.9976C22.801 12.6976 23.5205 11.8691 23.7797 10.8091L24.0775 9.6091C24.1216 9.43481 24.2787 9.33196 24.4303 9.38339C24.5241 9.41481 24.5985 9.50053 24.6261 9.6091L24.9239 10.8091C25.183 11.8691 25.9026 12.6976 26.8234 12.9976L27.8656 13.3405C28.0172 13.3919 28.1054 13.5719 28.0613 13.7491C28.0337 13.8576 27.9593 13.9433 27.8656 13.9748L26.8234 14.3176C25.9026 14.6176 25.183 15.4462 24.9239 16.5062L24.6261 17.7061C24.5903 17.849 24.48 17.9461 24.3504 17.9461H24.3532ZM22.5583 13.6605L22.6162 13.6805C23.4489 13.9519 24.0995 14.7005 24.3339 15.6576L24.3504 15.7233L24.3669 15.6576C24.6013 14.6976 25.2519 13.949 26.0845 13.6805L26.1424 13.6605L26.0845 13.6405C25.2519 13.3691 24.6013 12.6205 24.3669 11.6634L24.3504 11.5976L24.3339 11.6634C24.0995 12.6233 23.4489 13.3719 22.6162 13.6405L22.5583 13.6605Z" fill="#6C7288"/>
</svg>
